# Blender 4.4.0
# www.blender.org
mtllib sphere.mtl
o Mball
v -0.259782 0.238787 -0.026655
v -0.301764 0.184658 0.007514
v -0.293951 0.184658 -0.068637
v -0.345901 0.061553 0.043437
v -0.329873 0.061553 -0.112774
v -0.345901 -0.061553 0.043437
v -0.329873 -0.061553 -0.112774
v -0.320829 -0.061553 -0.135695
v -0.320829 0.061553 -0.135695
v -0.264375 -0.061553 -0.227319
v -0.264375 0.061553 -0.227319
v -0.242012 -0.163175 -0.199843
v -0.146533 -0.163175 -0.277552
v -0.168896 -0.061553 -0.305028
v -0.067716 -0.061553 -0.341700
v -0.067716 0.061553 -0.341700
v -0.168896 0.061553 -0.305028
v -0.146533 0.163175 -0.277552
v -0.242012 0.163175 -0.199843
v -0.138915 0.184658 -0.268192
v -0.234394 0.184658 -0.190483
v -0.068824 0.295695 -0.182073
v -0.164303 0.295695 -0.104364
v -0.055263 0.307763 -0.165411
v -0.150742 0.307763 -0.087702
v 0.008885 0.343190 -0.086594
v -0.086594 0.343190 -0.008885
v 0.087702 0.307763 -0.150742
v 0.086594 0.343190 0.008885
v 0.165411 0.307763 -0.055263
v 0.182073 0.295695 -0.068824
v 0.104364 0.295695 -0.164303
v 0.190483 0.184658 -0.234394
v 0.268192 0.184658 -0.138915
v 0.277552 0.163175 -0.146533
v 0.199843 0.163175 -0.242012
v 0.227319 0.061553 -0.264375
v 0.305028 0.061553 -0.168896
v 0.305028 -0.061553 -0.168896
v 0.227319 -0.061553 -0.264375
v 0.277552 -0.163175 -0.146533
v 0.199843 -0.163175 -0.242012
v 0.190483 -0.184658 -0.234394
v 0.268192 -0.184658 -0.138915
v 0.182073 -0.295695 -0.068824
v 0.104364 -0.295695 -0.164303
v 0.087702 -0.307763 -0.150742
v 0.165411 -0.307763 -0.055263
v 0.086594 -0.343190 0.008885
v 0.008885 -0.343190 -0.086594
v -0.086594 -0.343190 -0.008885
v -0.008885 -0.343190 0.086594
v -0.165411 -0.307763 0.055263
v -0.087702 -0.307763 0.150742
v -0.104364 -0.295695 0.164303
v -0.182073 -0.295695 0.068824
v -0.268192 -0.184658 0.138915
v -0.190483 -0.184658 0.234394
v -0.199843 -0.163175 0.242012
v -0.277552 -0.163175 0.146533
v -0.305028 -0.061553 0.168896
v -0.227319 -0.061553 0.264375
v -0.305028 0.061553 0.168896
v -0.227319 0.061553 0.264375
v -0.199843 0.163175 0.242012
v -0.277552 0.163175 0.146533
v -0.268192 0.184658 0.138915
v -0.190483 0.184658 0.234394
v -0.104364 0.295695 0.164303
v -0.182073 0.295695 0.068824
v -0.165411 0.307763 0.055263
v -0.087702 0.307763 0.150742
v -0.008885 0.343190 0.086594
v 0.055263 0.307763 0.165411
v 0.150742 0.307763 0.087702
v 0.164303 0.295695 0.104364
v 0.068824 0.295695 0.182073
v 0.234394 0.184658 0.190483
v 0.138915 0.184658 0.268192
v 0.242012 0.163175 0.199843
v 0.146533 0.163175 0.277552
v 0.067716 0.061553 0.341700
v 0.043437 0.061553 0.345901
v 0.007514 0.184658 0.301764
v 0.067716 -0.061553 0.341700
v 0.043437 -0.061553 0.345901
v 0.146533 -0.163175 0.277552
v 0.138915 -0.184658 0.268192
v 0.007514 -0.184658 0.301764
v -0.068637 -0.184658 0.293951
v -0.112774 -0.061553 0.329873
v -0.026655 -0.238787 0.259782
v 0.242012 -0.163175 0.199843
v 0.234394 -0.184658 0.190483
v 0.164303 -0.295695 0.104364
v 0.068824 -0.295695 0.182073
v 0.259782 -0.238787 0.026655
v 0.293951 -0.184658 0.068637
v 0.150742 -0.307763 0.087702
v 0.055263 -0.307763 0.165411
v 0.320829 -0.061553 0.135695
v 0.329873 -0.061553 0.112774
v 0.320829 0.061553 0.135695
v 0.329873 0.061553 0.112774
v 0.345901 -0.061553 -0.043437
v 0.345901 0.061553 -0.043437
v 0.341700 0.061553 -0.067716
v 0.341700 -0.061553 -0.067716
v 0.264375 -0.061553 0.227319
v 0.264375 0.061553 0.227319
v 0.168896 -0.061553 0.305028
v 0.168896 0.061553 0.305028
v 0.301764 -0.184658 -0.007514
v -0.112774 0.061553 0.329873
v -0.135695 -0.061553 0.320829
v -0.135695 0.061553 0.320829
v -0.068637 0.184658 0.293951
v -0.026655 0.238787 0.259782
v 0.293951 0.184658 0.068637
v 0.259782 0.238787 0.026655
v 0.301764 0.184658 -0.007514
v -0.341700 -0.061553 0.067716
v -0.341700 0.061553 0.067716
v -0.259782 -0.238787 -0.026655
v -0.301764 -0.184658 0.007514
v -0.293951 -0.184658 -0.068637
v -0.164303 -0.295695 -0.104364
v -0.234394 -0.184658 -0.190483
v -0.068824 -0.295695 -0.182073
v -0.138915 -0.184658 -0.268192
v 0.026655 -0.238787 -0.259782
v -0.007514 -0.184658 -0.301764
v 0.068637 -0.184658 -0.293951
v 0.112774 -0.061553 -0.329873
v -0.043437 -0.061553 -0.345901
v 0.112774 0.061553 -0.329873
v -0.043437 0.061553 -0.345901
v 0.068637 0.184658 -0.293951
v -0.007514 0.184658 -0.301764
v 0.026655 0.238787 -0.259782
v 0.135695 -0.061553 -0.320829
v 0.135695 0.061553 -0.320829
v -0.150742 -0.307763 -0.087702
v -0.055263 -0.307763 -0.165411
vn -0.7001 0.7104 -0.0718
vn -0.8648 0.4985 0.0607
vn -0.8344 0.4976 -0.2369
vn -0.9816 0.1815 0.0587
vn -0.9494 0.1886 -0.2513
vn -0.9806 -0.1886 0.0532
vn -0.9493 -0.1815 -0.2569
vn -0.8781 -0.1872 -0.4403
vn -0.8829 0.2058 -0.4222
vn -0.7402 -0.1621 -0.6526
vn -0.7402 0.1621 -0.6526
vn -0.7076 -0.4108 -0.5750
vn -0.4190 -0.4008 -0.8147
vn -0.4887 -0.1621 -0.8573
vn -0.2341 -0.2058 -0.9502
vn -0.2528 0.1872 -0.9492
vn -0.4887 0.1621 -0.8573
vn -0.4193 0.4108 -0.8096
vn -0.7127 0.4008 -0.5757
vn -0.3629 0.5867 -0.7239
vn -0.6465 0.5718 -0.5051
vn -0.2185 0.7945 -0.5666
vn -0.5025 0.7998 -0.3282
vn -0.1044 0.8847 -0.4543
vn -0.3998 0.8964 -0.1913
vn 0.0234 0.9734 -0.2281
vn -0.2281 0.9734 -0.0234
vn 0.1945 0.8847 -0.4236
vn 0.2281 0.9734 0.0234
vn 0.4359 0.8926 -0.1152
vn 0.5658 0.7906 -0.2343
vn 0.3290 0.7945 -0.5105
vn 0.5051 0.5718 -0.6465
vn 0.7356 0.5718 -0.3633
vn 0.8147 0.4008 -0.4190
vn 0.5757 0.4008 -0.7127
vn 0.6526 0.1621 -0.7402
vn 0.8573 0.1621 -0.4887
vn 0.8573 -0.1621 -0.4887
vn 0.6526 -0.1621 -0.7402
vn 0.8096 -0.4108 -0.4193
vn 0.5750 -0.4108 -0.7076
vn 0.5024 -0.5867 -0.6351
vn 0.7239 -0.5867 -0.3629
vn 0.5598 -0.7984 -0.2216
vn 0.3290 -0.7942 -0.5109
vn 0.1945 -0.8847 -0.4236
vn 0.4308 -0.8958 -0.1093
vn 0.2281 -0.9734 0.0234
vn 0.0234 -0.9734 -0.2281
vn -0.2281 -0.9734 -0.0234
vn -0.0234 -0.9734 0.2281
vn -0.4543 -0.8847 0.1044
vn -0.1945 -0.8847 0.4236
vn -0.3290 -0.7945 0.5105
vn -0.5666 -0.7945 0.2185
vn -0.7356 -0.5718 0.3633
vn -0.5047 -0.5741 0.6448
vn -0.5766 -0.4031 0.7106
vn -0.8147 -0.4008 0.4190
vn -0.8573 -0.1621 0.4887
vn -0.6526 -0.1621 0.7402
vn -0.8573 0.1621 0.4887
vn -0.6526 0.1621 0.7402
vn -0.5563 0.4182 0.7181
vn -0.8096 0.4108 0.4193
vn -0.7239 0.5867 0.3629
vn -0.4974 0.5774 0.6475
vn -0.3282 0.7998 0.5025
vn -0.5671 0.7942 0.2184
vn -0.4543 0.8847 0.1044
vn -0.1913 0.8964 0.3998
vn -0.0234 0.9734 0.2281
vn 0.1044 0.8847 0.4543
vn 0.3996 0.8958 0.1945
vn 0.5032 0.7984 0.3307
vn 0.2184 0.7942 0.5671
vn 0.6465 0.5718 0.5051
vn 0.3629 0.5867 0.7239
vn 0.7127 0.4008 0.5757
vn 0.4193 0.4108 0.8096
vn 0.2528 0.1872 0.9492
vn 0.0587 0.1815 0.9816
vn 0.0607 0.4985 0.8648
vn 0.2341 -0.2058 0.9502
vn 0.0532 -0.1886 0.9806
vn 0.4190 -0.4008 0.8147
vn 0.3633 -0.5718 0.7356
vn 0.0625 -0.4976 0.8651
vn -0.2353 -0.4988 0.8342
vn -0.2428 -0.1755 0.9541
vn -0.0716 -0.7127 0.6978
vn 0.7076 -0.4108 0.5750
vn 0.6351 -0.5867 0.5024
vn 0.5064 -0.7906 0.3443
vn 0.2185 -0.7945 0.5666
vn 0.7015 -0.7090 0.0718
vn 0.8344 -0.4985 0.2351
vn 0.4034 -0.8926 0.2013
vn 0.1044 -0.8847 0.4543
vn 0.8781 -0.1872 0.4403
vn 0.9493 -0.1815 0.2569
vn 0.8829 0.2058 0.4222
vn 0.9494 0.1886 0.2513
vn 0.9816 -0.1815 -0.0587
vn 0.9806 0.1886 -0.0532
vn 0.9502 0.2058 -0.2341
vn 0.9492 -0.1872 -0.2528
vn 0.7402 -0.1621 0.6526
vn 0.7402 0.1621 0.6526
vn 0.4887 -0.1621 0.8573
vn 0.4887 0.1621 0.8573
vn 0.8648 -0.4985 -0.0607
vn -0.2517 0.1882 0.9493
vn -0.4330 -0.1858 0.8820
vn -0.4222 0.2058 0.8829
vn -0.2397 0.4960 0.8346
vn -0.0718 0.7104 0.7001
vn 0.8344 0.4976 0.2369
vn 0.7015 0.7090 0.0722
vn 0.8651 0.4976 -0.0625
vn -0.9502 -0.2058 0.2341
vn -0.9492 0.1872 0.2528
vn -0.6978 -0.7127 -0.0716
vn -0.8651 -0.4976 0.0625
vn -0.8344 -0.4985 -0.2351
vn -0.5105 -0.7945 -0.3290
vn -0.6351 -0.5867 -0.5024
vn -0.2193 -0.7998 -0.5587
vn -0.3633 -0.5718 -0.7356
vn 0.0718 -0.7104 -0.7001
vn -0.0625 -0.4976 -0.8651
vn 0.2351 -0.4985 -0.8344
vn 0.2569 -0.1815 -0.9493
vn -0.0532 -0.1886 -0.9806
vn 0.2513 0.1886 -0.9494
vn -0.0587 0.1815 -0.9816
vn 0.2369 0.4976 -0.8344
vn -0.0607 0.4985 -0.8648
vn 0.0716 0.7127 -0.6978
vn 0.4403 -0.1872 -0.8781
vn 0.4222 0.2058 -0.8829
vn -0.4236 -0.8847 -0.1945
vn -0.1061 -0.8964 -0.4304
s 1
f 3//3 2//2 1//1
f 2//2 3//3 5//5 4//4
f 4//4 5//5 7//7 6//6
f 7//7 5//5 9//9 8//8
f 9//9 11//11 10//10 8//8
f 8//8 10//10 12//12
f 12//12 10//10 14//14 13//13
f 14//14 15//15 13//13
f 14//14 17//17 16//16 15//15
f 16//16 17//17 18//18
f 17//17 11//11 19//19 18//18
f 19//19 21//21 20//20 18//18
f 20//20 21//21 23//23 22//22
f 23//23 25//25 24//24 22//22
f 24//24 25//25 27//27 26//26
f 28//28 24//24 26//26
f 30//30 28//28 26//26 29//29
f 32//32 28//28 30//30 31//31
f 34//34 33//33 32//32 31//31
f 36//36 33//33 34//34 35//35
f 38//38 37//37 36//36 35//35
f 40//40 37//37 38//38 39//39
f 42//42 40//40 39//39 41//41
f 44//44 43//43 42//42 41//41
f 46//46 43//43 44//44 45//45
f 48//48 47//47 46//46 45//45
f 50//50 47//47 48//48 49//49
f 52//52 51//51 50//50 49//49
f 54//54 53//53 51//51 52//52
f 56//56 53//53 54//54 55//55
f 58//58 57//57 56//56 55//55
f 60//60 57//57 58//58 59//59
f 62//62 61//61 60//60 59//59
f 64//64 63//63 61//61 62//62
f 66//66 63//63 64//64 65//65
f 68//68 67//67 66//66 65//65
f 70//70 67//67 68//68 69//69
f 72//72 71//71 70//70 69//69
f 27//27 71//71 72//72 73//73
f 72//72 74//74 73//73
f 73//73 74//74 75//75 29//29
f 75//75 74//74 77//77 76//76
f 77//77 79//79 78//78 76//76
f 78//78 79//79 81//81 80//80
f 84//84 83//83 82//82 81//81
f 79//79 84//84 81//81
f 82//82 83//83 86//86 85//85
f 86//86 89//89 88//88 87//87
f 85//85 86//86 87//87
f 89//89 86//86 91//91 90//90
f 89//89 90//90 92//92
f 87//87 88//88 94//94 93//93
f 94//94 88//88 96//96 95//95
f 98//98 94//94 95//95 97//97
f 96//96 100//100 99//99 95//95
f 98//98 102//102 101//101 93//93
f 94//94 98//98 93//93
f 102//102 104//104 103//103 101//101
f 106//106 104//104 102//102 105//105
f 108//108 107//107 106//106 105//105
f 103//103 110//110 109//109 101//101
f 110//110 103//103 80//80
f 110//110 112//112 111//111 109//109
f 105//105 102//102 98//98 113//113
f 101//101 109//109 93//93
f 109//109 111//111 87//87 93//93
f 111//111 85//85 87//87
f 86//86 83//83 114//114 91//91
f 114//114 116//116 115//115 91//91
f 111//111 112//112 82//82 85//85
f 83//83 84//84 117//117 114//114
f 117//117 84//84 118//118
f 104//104 119//119 78//78 80//80
f 103//103 104//104 80//80
f 81//81 112//112 110//110 80//80
f 118//118 84//84 79//79 77//77
f 76//76 78//78 119//119 120//120
f 119//119 121//121 120//120
f 64//64 116//116 65//65
f 63//63 123//123 122//122 61//61
f 115//115 116//116 64//64 62//62
f 61//61 122//122 60//60
f 115//115 62//62 59//59
f 57//57 125//125 124//124 56//56
f 125//125 126//126 124//124
f 124//124 126//126 128//128 127//127
f 127//127 128//128 130//130 129//129
f 129//129 130//130 132//132 131//131
f 132//132 133//133 131//131
f 132//132 135//135 134//134 133//133
f 135//135 137//137 136//136 134//134
f 137//137 139//139 138//138 136//136
f 138//138 139//139 140//140
f 136//136 142//142 141//141 134//134
f 144//144 143//143 127//127 129//129
f 90//90 58//58 55//55 92//92
f 127//127 143//143 53//53 56//56
f 124//124 127//127 56//56
f 55//55 54//54 100//100 96//96
f 92//92 55//55 96//96
f 100//100 54//54 52//52
f 51//51 143//143 144//144 50//50
f 99//99 100//100 52//52 49//49
f 144//144 47//47 50//50
f 48//48 99//99 49//49
f 144//144 129//129 131//131 46//46
f 47//47 144//144 46//46
f 99//99 48//48 45//45 97//97
f 95//95 99//99 97//97
f 45//45 44//44 113//113 97//97
f 133//133 134//134 141//141 42//42
f 43//43 133//133 42//42
f 41//41 108//108 105//105 113//113
f 44//44 41//41 113//113
f 141//141 40//40 42//42
f 39//39 108//108 41//41
f 141//141 142//142 37//37 40//40
f 38//38 107//107 108//108 39//39
f 107//107 38//38 35//35
f 136//136 138//138 33//33 36//36
f 142//142 136//136 36//36
f 35//35 34//34 121//121 106//106
f 107//107 35//35 106//106
f 33//33 138//138 140//140 32//32
f 121//121 34//34 31//31 120//120
f 75//75 30//30 29//29
f 26//26 27//27 73//73 29//29
f 25//25 23//23 1//1 70//70
f 71//71 25//25 70//70
f 16//16 137//137 135//135 15//15
f 130//130 128//128 12//12 13//13
f 10//10 11//11 17//17 14//14
f 122//122 123//123 4//4 6//6
f 5//5 3//3 21//21 19//19
f 9//9 5//5 19//19
f 2//2 4//4 123//123 66//66
f 67//67 2//2 66//66
f 6//6 7//7 126//126 125//125
f 21//21 3//3 1//1 23//23
f 11//11 9//9 19//19
f 126//126 7//7 8//8 12//12
f 128//128 126//126 12//12
f 139//139 20//20 22//22 140//140
f 139//139 137//137 16//16 18//18
f 20//20 139//139 18//18
f 135//135 132//132 130//130 13//13
f 15//15 135//135 13//13
f 1//1 2//2 67//67 70//70
f 123//123 63//63 66//66
f 6//6 125//125 57//57 60//60
f 122//122 6//6 60//60
f 25//25 71//71 27//27
f 53//53 143//143 51//51
f 22//22 24//24 28//28 32//32
f 140//140 22//22 32//32
f 37//37 142//142 36//36
f 131//131 133//133 43//43 46//46
f 69//69 68//68 117//117 118//118
f 68//68 65//65 116//116 114//114
f 117//117 68//68 114//114
f 115//115 59//59 58//58 90//90
f 91//91 115//115 90//90
f 72//72 69//69 118//118 77//77
f 74//74 72//72 77//77
f 82//82 112//112 81//81
f 88//88 89//89 92//92 96//96
f 30//30 75//75 76//76 120//120
f 31//31 30//30 120//120
f 121//121 119//119 104//104 106//106
f 113//113 98//98 97//97
